<svg xmlns="http://www.w3.org/2000/svg" xmlns:xlink="http://www.w3.org/1999/xlink" width="500" zoomAndPan="magnify" viewBox="0 0 375 374.999991" height="500" preserveAspectRatio="xMidYMid meet" version="1.0"><defs><g/></defs><rect x="-37.5" width="450" fill="#ffffff" y="-37.499999" height="449.999989" fill-opacity="1"/><rect x="-37.5" width="450" fill="#121212" y="-37.499999" height="449.999989" fill-opacity="1"/><g fill="#add8e6" fill-opacity="1"><g transform="translate(172.465529, 260.460764)"><g><path d="M 138.265625 -15.796875 C 140.085938 -12.804688 141.84375 -10.429688 143.53125 -8.671875 C 145.21875 -6.921875 147.425781 -5.332031 150.15625 -3.90625 L 150.15625 0 C 139.238281 -0.382812 127.539062 -0.578125 115.0625 -0.578125 C 105.4375 -0.578125 96.140625 -0.382812 87.171875 0 L 87.171875 -3.90625 C 91.328125 -4.164062 94.21875 -4.519531 95.84375 -4.96875 C 97.46875 -5.425781 98.28125 -6.304688 98.28125 -7.609375 C 98.28125 -8.910156 97.632812 -10.597656 96.34375 -12.671875 L 68.0625 -60.453125 C 66.238281 -63.578125 64.707031 -65.722656 63.46875 -66.890625 C 62.238281 -68.054688 60.710938 -68.769531 58.890625 -69.03125 L 58.890625 -20.671875 C 58.890625 -15.734375 59.25 -12.15625 59.96875 -9.9375 C 60.6875 -7.726562 61.953125 -6.234375 63.765625 -5.453125 C 65.585938 -4.679688 68.578125 -4.164062 72.734375 -3.90625 L 72.734375 0 C 65.203125 -0.382812 54.347656 -0.578125 40.171875 -0.578125 C 24.441406 -0.578125 12.867188 -0.382812 5.453125 0 L 5.453125 -3.90625 C 9.617188 -4.164062 12.644531 -4.679688 14.53125 -5.453125 C 16.414062 -6.234375 17.679688 -7.726562 18.328125 -9.9375 C 18.984375 -12.15625 19.3125 -15.734375 19.3125 -20.671875 L 19.3125 -117.40625 C 19.3125 -122.34375 18.953125 -125.914062 18.234375 -128.125 C 17.515625 -130.332031 16.242188 -131.828125 14.421875 -132.609375 C 12.609375 -133.390625 9.617188 -133.910156 5.453125 -134.171875 L 5.453125 -138.078125 C 12.867188 -137.679688 24.441406 -137.484375 40.171875 -137.484375 C 54.210938 -137.484375 65.066406 -137.679688 72.734375 -138.078125 L 72.734375 -134.171875 C 68.578125 -133.910156 65.554688 -133.390625 63.671875 -132.609375 C 61.785156 -131.828125 60.515625 -130.332031 59.859375 -128.125 C 59.210938 -125.914062 58.890625 -122.34375 58.890625 -117.40625 L 58.890625 -73.328125 C 64.097656 -73.710938 69.171875 -75.660156 74.109375 -79.171875 C 79.046875 -82.679688 85.09375 -88.46875 92.25 -96.53125 L 98.875 -103.9375 C 104.59375 -110.4375 107.453125 -116.289062 107.453125 -121.5 C 107.453125 -125.269531 105.957031 -128.289062 102.96875 -130.5625 C 99.976562 -132.832031 96.144531 -134.097656 91.46875 -134.359375 L 91.46875 -138.078125 C 102.382812 -137.679688 113.367188 -137.484375 124.421875 -137.484375 C 132.347656 -137.484375 138.910156 -137.679688 144.109375 -138.078125 L 144.109375 -134.359375 C 132.804688 -131.367188 122.148438 -124.222656 112.140625 -112.921875 L 93.015625 -91.265625 Z M 138.265625 -15.796875 "/></g></g></g><g fill="#add8e6" fill-opacity="1"><g transform="translate(52.938106, 260.244314)"><g><path d="M 182.734375 -134.171875 C 178.566406 -133.910156 175.539062 -133.390625 173.65625 -132.609375 C 171.769531 -131.828125 170.503906 -130.332031 169.859375 -128.125 C 169.210938 -125.914062 168.890625 -122.34375 168.890625 -117.40625 L 168.890625 -20.671875 C 168.890625 -15.734375 169.242188 -12.15625 169.953125 -9.9375 C 170.671875 -7.726562 171.9375 -6.234375 173.75 -5.453125 C 175.570312 -4.679688 178.566406 -4.164062 182.734375 -3.90625 L 182.734375 0 C 174.796875 -0.382812 163.289062 -0.578125 148.21875 -0.578125 C 132.476562 -0.578125 120.90625 -0.382812 113.5 0 L 113.5 -3.90625 C 118.175781 -4.164062 121.585938 -4.679688 123.734375 -5.453125 C 125.878906 -6.234375 127.34375 -7.726562 128.125 -9.9375 C 128.90625 -12.15625 129.296875 -15.734375 129.296875 -20.671875 L 129.296875 -120.328125 L 82.296875 -0.1875 L 79.171875 -0.1875 L 24.1875 -125.390625 L 24.1875 -38.21875 C 24.1875 -28.601562 24.570312 -21.679688 25.34375 -17.453125 C 26.125 -13.222656 27.847656 -10.132812 30.515625 -8.1875 C 33.179688 -6.238281 37.632812 -4.8125 43.875 -3.90625 L 43.875 0 C 38.550781 -0.382812 31.269531 -0.578125 22.03125 -0.578125 C 15.144531 -0.578125 9.75 -0.382812 5.84375 0 L 5.84375 -3.90625 C 9.875 -4.8125 12.863281 -6.207031 14.8125 -8.09375 C 16.769531 -9.976562 18.070312 -12.867188 18.71875 -16.765625 C 19.375 -20.671875 19.703125 -26.523438 19.703125 -34.328125 L 19.703125 -117.40625 C 19.703125 -122.34375 19.34375 -125.914062 18.625 -128.125 C 17.90625 -130.332031 16.632812 -131.828125 14.8125 -132.609375 C 13 -133.390625 10.007812 -133.910156 5.84375 -134.171875 L 5.84375 -138.078125 C 9.75 -137.679688 15.144531 -137.484375 22.03125 -137.484375 C 37.632812 -137.484375 51.09375 -137.679688 62.40625 -138.078125 L 99.265625 -55.1875 L 131.25 -137.484375 L 148.21875 -137.484375 C 163.289062 -137.484375 174.796875 -137.679688 182.734375 -138.078125 Z M 182.734375 -134.171875 "/></g></g></g><path fill="#121212" d="M 33.257812 179.210938 L 341.714844 179.210938 C 344.972656 179.210938 347.617188 181.851562 347.617188 185.109375 L 347.617188 196.90625 C 347.617188 200.164062 344.972656 202.804688 341.714844 202.804688 L 33.257812 202.804688 C 30 202.804688 27.359375 200.164062 27.359375 196.90625 L 27.359375 185.109375 C 27.359375 181.851562 30 179.210938 33.257812 179.210938 Z M 33.257812 179.210938 " fill-opacity="1" fill-rule="nonzero"/><g fill="#add8e6" fill-opacity="1"><g transform="translate(34.753724, 196.319333)"><g><path d="M 1.296875 -10.71875 L 2.84375 -10.71875 L 6.484375 -1.828125 L 6.609375 -1.828125 L 10.25 -10.71875 L 11.796875 -10.71875 L 11.796875 0 L 10.59375 0 L 10.59375 -8.140625 L 10.484375 -8.140625 L 7.140625 0 L 5.96875 0 L 2.609375 -8.140625 L 2.515625 -8.140625 L 2.515625 0 L 1.296875 0 Z M 1.296875 -10.71875 "/></g></g></g><g fill="#add8e6" fill-opacity="1"><g transform="translate(51.17956, 196.319333)"><g><path d="M 2.59375 -10.71875 L 2.59375 0 L 1.296875 0 L 1.296875 -10.71875 Z M 2.59375 -10.71875 "/></g></g></g><g fill="#add8e6" fill-opacity="1"><g transform="translate(58.072996, 196.319333)"><g><path d="M 9.921875 -7.359375 L 8.625 -7.359375 C 8.519531 -7.859375 8.316406 -8.273438 8.015625 -8.609375 C 7.722656 -8.953125 7.367188 -9.207031 6.953125 -9.375 C 6.535156 -9.550781 6.085938 -9.640625 5.609375 -9.640625 C 4.960938 -9.640625 4.375 -9.476562 3.84375 -9.15625 C 3.320312 -8.832031 2.90625 -8.347656 2.59375 -7.703125 C 2.289062 -7.066406 2.140625 -6.285156 2.140625 -5.359375 C 2.140625 -4.429688 2.289062 -3.644531 2.59375 -3 C 2.90625 -2.363281 3.320312 -1.878906 3.84375 -1.546875 C 4.375 -1.222656 4.960938 -1.0625 5.609375 -1.0625 C 6.085938 -1.0625 6.535156 -1.148438 6.953125 -1.328125 C 7.367188 -1.503906 7.722656 -1.757812 8.015625 -2.09375 C 8.316406 -2.4375 8.519531 -2.851562 8.625 -3.34375 L 9.921875 -3.34375 C 9.785156 -2.613281 9.515625 -1.988281 9.109375 -1.46875 C 8.703125 -0.945312 8.195312 -0.546875 7.59375 -0.265625 C 6.988281 0.00390625 6.328125 0.140625 5.609375 0.140625 C 4.691406 0.140625 3.878906 -0.078125 3.171875 -0.515625 C 2.460938 -0.960938 1.898438 -1.597656 1.484375 -2.421875 C 1.078125 -3.242188 0.875 -4.222656 0.875 -5.359375 C 0.875 -6.484375 1.078125 -7.457031 1.484375 -8.28125 C 1.898438 -9.101562 2.460938 -9.738281 3.171875 -10.1875 C 3.878906 -10.632812 4.691406 -10.859375 5.609375 -10.859375 C 6.328125 -10.859375 6.988281 -10.71875 7.59375 -10.4375 C 8.195312 -10.164062 8.703125 -9.769531 9.109375 -9.25 C 9.515625 -8.726562 9.785156 -8.097656 9.921875 -7.359375 Z M 9.921875 -7.359375 "/></g></g></g><g fill="#add8e6" fill-opacity="1"><g transform="translate(71.781265, 196.319333)"><g><path d="M 1.296875 0 L 1.296875 -10.71875 L 2.59375 -10.71875 L 2.59375 -5.9375 L 8.3125 -5.9375 L 8.3125 -10.71875 L 9.609375 -10.71875 L 9.609375 0 L 8.3125 0 L 8.3125 -4.796875 L 2.59375 -4.796875 L 2.59375 0 Z M 1.296875 0 "/></g></g></g><g fill="#add8e6" fill-opacity="1"><g transform="translate(85.67768, 196.319333)"><g><path d="M 1.734375 0 L 0.375 0 L 4.3125 -10.71875 L 5.65625 -10.71875 L 9.578125 0 L 8.21875 0 L 7.140625 -3.03125 L 2.8125 -3.03125 Z M 3.21875 -4.1875 L 6.734375 -4.1875 L 5.015625 -9.015625 L 4.9375 -9.015625 Z M 3.21875 -4.1875 "/></g></g></g><g fill="#add8e6" fill-opacity="1"><g transform="translate(98.633395, 196.319333)"><g><path d="M 1.296875 0 L 1.296875 -10.71875 L 7.765625 -10.71875 L 7.765625 -9.5625 L 2.59375 -9.5625 L 2.59375 -5.9375 L 7.4375 -5.9375 L 7.4375 -4.796875 L 2.59375 -4.796875 L 2.59375 -1.15625 L 7.84375 -1.15625 L 7.84375 0 Z M 1.296875 0 "/></g></g></g><g fill="#add8e6" fill-opacity="1"><g transform="translate(110.43936, 196.319333)"><g><path d="M 1.296875 0 L 1.296875 -10.71875 L 2.59375 -10.71875 L 2.59375 -1.15625 L 7.578125 -1.15625 L 7.578125 0 Z M 1.296875 0 "/></g></g></g><g fill="#add8e6" fill-opacity="1"><g transform="translate(121.722724, 196.319333)"><g/></g></g><g fill="#add8e6" fill-opacity="1"><g transform="translate(128.867016, 196.319333)"><g><path d="M 1.296875 0 L 1.296875 -10.71875 L 2.59375 -10.71875 L 2.59375 -5.40625 L 2.71875 -5.40625 L 7.53125 -10.71875 L 9.234375 -10.71875 L 4.734375 -5.875 L 9.234375 0 L 7.65625 0 L 3.9375 -4.984375 L 2.59375 -3.46875 L 2.59375 0 Z M 1.296875 0 "/></g></g></g><g fill="#add8e6" fill-opacity="1"><g transform="translate(141.467352, 196.319333)"><g><path d="M 1.734375 0 L 0.375 0 L 4.3125 -10.71875 L 5.65625 -10.71875 L 9.578125 0 L 8.21875 0 L 7.140625 -3.03125 L 2.8125 -3.03125 Z M 3.21875 -4.1875 L 6.734375 -4.1875 L 5.015625 -9.015625 L 4.9375 -9.015625 Z M 3.21875 -4.1875 "/></g></g></g><g fill="#add8e6" fill-opacity="1"><g transform="translate(154.423067, 196.319333)"><g><path d="M 0.71875 -9.5625 L 0.71875 -10.71875 L 8.75 -10.71875 L 8.75 -9.5625 L 5.375 -9.5625 L 5.375 0 L 4.078125 0 L 4.078125 -9.5625 Z M 0.71875 -9.5625 "/></g></g></g><g fill="#add8e6" fill-opacity="1"><g transform="translate(166.877076, 196.319333)"><g><path d="M 7.15625 -8.03125 C 7.09375 -8.5625 6.835938 -8.972656 6.390625 -9.265625 C 5.941406 -9.566406 5.394531 -9.71875 4.75 -9.71875 C 4.039062 -9.71875 3.46875 -9.546875 3.03125 -9.203125 C 2.601562 -8.867188 2.390625 -8.445312 2.390625 -7.9375 C 2.390625 -7.550781 2.503906 -7.238281 2.734375 -7 C 2.972656 -6.769531 3.253906 -6.585938 3.578125 -6.453125 C 3.898438 -6.328125 4.191406 -6.226562 4.453125 -6.15625 L 5.546875 -5.859375 C 5.828125 -5.785156 6.140625 -5.679688 6.484375 -5.546875 C 6.828125 -5.421875 7.15625 -5.25 7.46875 -5.03125 C 7.78125 -4.8125 8.039062 -4.523438 8.25 -4.171875 C 8.457031 -3.828125 8.5625 -3.40625 8.5625 -2.90625 C 8.5625 -2.332031 8.410156 -1.8125 8.109375 -1.34375 C 7.804688 -0.875 7.363281 -0.5 6.78125 -0.21875 C 6.207031 0.0507812 5.507812 0.1875 4.6875 0.1875 C 3.539062 0.1875 2.628906 -0.0820312 1.953125 -0.625 C 1.273438 -1.164062 0.90625 -1.878906 0.84375 -2.765625 L 2.171875 -2.765625 C 2.210938 -2.359375 2.351562 -2.019531 2.59375 -1.75 C 2.832031 -1.488281 3.132812 -1.296875 3.5 -1.171875 C 3.863281 -1.046875 4.257812 -0.984375 4.6875 -0.984375 C 5.1875 -0.984375 5.628906 -1.0625 6.015625 -1.21875 C 6.410156 -1.382812 6.722656 -1.613281 6.953125 -1.90625 C 7.179688 -2.195312 7.296875 -2.539062 7.296875 -2.9375 C 7.296875 -3.289062 7.195312 -3.578125 7 -3.796875 C 6.800781 -4.023438 6.539062 -4.207031 6.21875 -4.34375 C 5.894531 -4.476562 5.546875 -4.597656 5.171875 -4.703125 L 3.84375 -5.078125 C 3.007812 -5.328125 2.347656 -5.671875 1.859375 -6.109375 C 1.367188 -6.554688 1.125 -7.144531 1.125 -7.875 C 1.125 -8.46875 1.285156 -8.988281 1.609375 -9.4375 C 1.941406 -9.882812 2.382812 -10.234375 2.9375 -10.484375 C 3.488281 -10.734375 4.109375 -10.859375 4.796875 -10.859375 C 5.484375 -10.859375 6.09375 -10.734375 6.625 -10.484375 C 7.164062 -10.242188 7.59375 -9.910156 7.90625 -9.484375 C 8.226562 -9.054688 8.394531 -8.570312 8.40625 -8.03125 Z M 7.15625 -8.03125 "/></g></g></g><g fill="#add8e6" fill-opacity="1"><g transform="translate(179.268371, 196.319333)"><g><path d="M 1.734375 0 L 0.375 0 L 4.3125 -10.71875 L 5.65625 -10.71875 L 9.578125 0 L 8.21875 0 L 7.140625 -3.03125 L 2.8125 -3.03125 Z M 3.21875 -4.1875 L 6.734375 -4.1875 L 5.015625 -9.015625 L 4.9375 -9.015625 Z M 3.21875 -4.1875 "/></g></g></g><g fill="#add8e6" fill-opacity="1"><g transform="translate(192.224086, 196.319333)"><g><path d="M 1.296875 0 L 1.296875 -10.71875 L 4.921875 -10.71875 C 5.753906 -10.71875 6.4375 -10.570312 6.96875 -10.28125 C 7.507812 -10 7.910156 -9.609375 8.171875 -9.109375 C 8.429688 -8.617188 8.5625 -8.0625 8.5625 -7.4375 C 8.5625 -6.71875 8.394531 -6.09375 8.0625 -5.5625 C 7.738281 -5.039062 7.238281 -4.660156 6.5625 -4.421875 L 8.984375 0 L 7.46875 0 L 5.21875 -4.1875 C 5.125 -4.1875 5.03125 -4.1875 4.9375 -4.1875 L 2.59375 -4.1875 L 2.59375 0 Z M 2.59375 -5.359375 L 4.890625 -5.359375 C 5.753906 -5.359375 6.367188 -5.539062 6.734375 -5.90625 C 7.097656 -6.28125 7.28125 -6.789062 7.28125 -7.4375 C 7.28125 -8.070312 7.09375 -8.582031 6.71875 -8.96875 C 6.351562 -9.363281 5.738281 -9.5625 4.875 -9.5625 L 2.59375 -9.5625 Z M 2.59375 -5.359375 "/></g></g></g><g fill="#add8e6" fill-opacity="1"><g transform="translate(204.636277, 196.319333)"><g><path d="M 10.34375 -5.359375 C 10.34375 -4.222656 10.132812 -3.242188 9.71875 -2.421875 C 9.3125 -1.597656 8.753906 -0.960938 8.046875 -0.515625 C 7.335938 -0.078125 6.523438 0.140625 5.609375 0.140625 C 4.691406 0.140625 3.878906 -0.078125 3.171875 -0.515625 C 2.460938 -0.960938 1.898438 -1.597656 1.484375 -2.421875 C 1.078125 -3.242188 0.875 -4.222656 0.875 -5.359375 C 0.875 -6.484375 1.078125 -7.457031 1.484375 -8.28125 C 1.898438 -9.101562 2.460938 -9.738281 3.171875 -10.1875 C 3.878906 -10.632812 4.691406 -10.859375 5.609375 -10.859375 C 6.523438 -10.859375 7.335938 -10.632812 8.046875 -10.1875 C 8.753906 -9.738281 9.3125 -9.101562 9.71875 -8.28125 C 10.132812 -7.457031 10.34375 -6.484375 10.34375 -5.359375 Z M 9.078125 -5.359375 C 9.078125 -6.285156 8.921875 -7.066406 8.609375 -7.703125 C 8.304688 -8.347656 7.890625 -8.832031 7.359375 -9.15625 C 6.835938 -9.476562 6.253906 -9.640625 5.609375 -9.640625 C 4.960938 -9.640625 4.375 -9.476562 3.84375 -9.15625 C 3.320312 -8.832031 2.90625 -8.347656 2.59375 -7.703125 C 2.289062 -7.066406 2.140625 -6.285156 2.140625 -5.359375 C 2.140625 -4.429688 2.289062 -3.644531 2.59375 -3 C 2.90625 -2.363281 3.320312 -1.878906 3.84375 -1.546875 C 4.375 -1.222656 4.960938 -1.0625 5.609375 -1.0625 C 6.253906 -1.0625 6.835938 -1.222656 7.359375 -1.546875 C 7.890625 -1.878906 8.304688 -2.363281 8.609375 -3 C 8.921875 -3.644531 9.078125 -4.429688 9.078125 -5.359375 Z M 9.078125 -5.359375 "/></g></g></g><g fill="#add8e6" fill-opacity="1"><g transform="translate(218.846249, 196.319333)"><g><path d="M 7.15625 -8.03125 C 7.09375 -8.5625 6.835938 -8.972656 6.390625 -9.265625 C 5.941406 -9.566406 5.394531 -9.71875 4.75 -9.71875 C 4.039062 -9.71875 3.46875 -9.546875 3.03125 -9.203125 C 2.601562 -8.867188 2.390625 -8.445312 2.390625 -7.9375 C 2.390625 -7.550781 2.503906 -7.238281 2.734375 -7 C 2.972656 -6.769531 3.253906 -6.585938 3.578125 -6.453125 C 3.898438 -6.328125 4.191406 -6.226562 4.453125 -6.15625 L 5.546875 -5.859375 C 5.828125 -5.785156 6.140625 -5.679688 6.484375 -5.546875 C 6.828125 -5.421875 7.15625 -5.25 7.46875 -5.03125 C 7.78125 -4.8125 8.039062 -4.523438 8.25 -4.171875 C 8.457031 -3.828125 8.5625 -3.40625 8.5625 -2.90625 C 8.5625 -2.332031 8.410156 -1.8125 8.109375 -1.34375 C 7.804688 -0.875 7.363281 -0.5 6.78125 -0.21875 C 6.207031 0.0507812 5.507812 0.1875 4.6875 0.1875 C 3.539062 0.1875 2.628906 -0.0820312 1.953125 -0.625 C 1.273438 -1.164062 0.90625 -1.878906 0.84375 -2.765625 L 2.171875 -2.765625 C 2.210938 -2.359375 2.351562 -2.019531 2.59375 -1.75 C 2.832031 -1.488281 3.132812 -1.296875 3.5 -1.171875 C 3.863281 -1.046875 4.257812 -0.984375 4.6875 -0.984375 C 5.1875 -0.984375 5.628906 -1.0625 6.015625 -1.21875 C 6.410156 -1.382812 6.722656 -1.613281 6.953125 -1.90625 C 7.179688 -2.195312 7.296875 -2.539062 7.296875 -2.9375 C 7.296875 -3.289062 7.195312 -3.578125 7 -3.796875 C 6.800781 -4.023438 6.539062 -4.207031 6.21875 -4.34375 C 5.894531 -4.476562 5.546875 -4.597656 5.171875 -4.703125 L 3.84375 -5.078125 C 3.007812 -5.328125 2.347656 -5.671875 1.859375 -6.109375 C 1.367188 -6.554688 1.125 -7.144531 1.125 -7.875 C 1.125 -8.46875 1.285156 -8.988281 1.609375 -9.4375 C 1.941406 -9.882812 2.382812 -10.234375 2.9375 -10.484375 C 3.488281 -10.734375 4.109375 -10.859375 4.796875 -10.859375 C 5.484375 -10.859375 6.09375 -10.734375 6.625 -10.484375 C 7.164062 -10.242188 7.59375 -9.910156 7.90625 -9.484375 C 8.226562 -9.054688 8.394531 -8.570312 8.40625 -8.03125 Z M 7.15625 -8.03125 "/></g></g></g><g fill="#add8e6" fill-opacity="1"><g transform="translate(231.237543, 196.319333)"><g/></g></g><g fill="#add8e6" fill-opacity="1"><g transform="translate(238.381836, 196.319333)"><g><path d="M 7.15625 -8.03125 C 7.09375 -8.5625 6.835938 -8.972656 6.390625 -9.265625 C 5.941406 -9.566406 5.394531 -9.71875 4.75 -9.71875 C 4.039062 -9.71875 3.46875 -9.546875 3.03125 -9.203125 C 2.601562 -8.867188 2.390625 -8.445312 2.390625 -7.9375 C 2.390625 -7.550781 2.503906 -7.238281 2.734375 -7 C 2.972656 -6.769531 3.253906 -6.585938 3.578125 -6.453125 C 3.898438 -6.328125 4.191406 -6.226562 4.453125 -6.15625 L 5.546875 -5.859375 C 5.828125 -5.785156 6.140625 -5.679688 6.484375 -5.546875 C 6.828125 -5.421875 7.15625 -5.25 7.46875 -5.03125 C 7.78125 -4.8125 8.039062 -4.523438 8.25 -4.171875 C 8.457031 -3.828125 8.5625 -3.40625 8.5625 -2.90625 C 8.5625 -2.332031 8.410156 -1.8125 8.109375 -1.34375 C 7.804688 -0.875 7.363281 -0.5 6.78125 -0.21875 C 6.207031 0.0507812 5.507812 0.1875 4.6875 0.1875 C 3.539062 0.1875 2.628906 -0.0820312 1.953125 -0.625 C 1.273438 -1.164062 0.90625 -1.878906 0.84375 -2.765625 L 2.171875 -2.765625 C 2.210938 -2.359375 2.351562 -2.019531 2.59375 -1.75 C 2.832031 -1.488281 3.132812 -1.296875 3.5 -1.171875 C 3.863281 -1.046875 4.257812 -0.984375 4.6875 -0.984375 C 5.1875 -0.984375 5.628906 -1.0625 6.015625 -1.21875 C 6.410156 -1.382812 6.722656 -1.613281 6.953125 -1.90625 C 7.179688 -2.195312 7.296875 -2.539062 7.296875 -2.9375 C 7.296875 -3.289062 7.195312 -3.578125 7 -3.796875 C 6.800781 -4.023438 6.539062 -4.207031 6.21875 -4.34375 C 5.894531 -4.476562 5.546875 -4.597656 5.171875 -4.703125 L 3.84375 -5.078125 C 3.007812 -5.328125 2.347656 -5.671875 1.859375 -6.109375 C 1.367188 -6.554688 1.125 -7.144531 1.125 -7.875 C 1.125 -8.46875 1.285156 -8.988281 1.609375 -9.4375 C 1.941406 -9.882812 2.382812 -10.234375 2.9375 -10.484375 C 3.488281 -10.734375 4.109375 -10.859375 4.796875 -10.859375 C 5.484375 -10.859375 6.09375 -10.734375 6.625 -10.484375 C 7.164062 -10.242188 7.59375 -9.910156 7.90625 -9.484375 C 8.226562 -9.054688 8.394531 -8.570312 8.40625 -8.03125 Z M 7.15625 -8.03125 "/></g></g></g><g fill="#add8e6" fill-opacity="1"><g transform="translate(250.773131, 196.319333)"><g><path d="M 10.34375 -5.359375 C 10.34375 -4.222656 10.132812 -3.242188 9.71875 -2.421875 C 9.3125 -1.597656 8.753906 -0.960938 8.046875 -0.515625 C 7.335938 -0.078125 6.523438 0.140625 5.609375 0.140625 C 4.691406 0.140625 3.878906 -0.078125 3.171875 -0.515625 C 2.460938 -0.960938 1.898438 -1.597656 1.484375 -2.421875 C 1.078125 -3.242188 0.875 -4.222656 0.875 -5.359375 C 0.875 -6.484375 1.078125 -7.457031 1.484375 -8.28125 C 1.898438 -9.101562 2.460938 -9.738281 3.171875 -10.1875 C 3.878906 -10.632812 4.691406 -10.859375 5.609375 -10.859375 C 6.523438 -10.859375 7.335938 -10.632812 8.046875 -10.1875 C 8.753906 -9.738281 9.3125 -9.101562 9.71875 -8.28125 C 10.132812 -7.457031 10.34375 -6.484375 10.34375 -5.359375 Z M 9.078125 -5.359375 C 9.078125 -6.285156 8.921875 -7.066406 8.609375 -7.703125 C 8.304688 -8.347656 7.890625 -8.832031 7.359375 -9.15625 C 6.835938 -9.476562 6.253906 -9.640625 5.609375 -9.640625 C 4.960938 -9.640625 4.375 -9.476562 3.84375 -9.15625 C 3.320312 -8.832031 2.90625 -8.347656 2.59375 -7.703125 C 2.289062 -7.066406 2.140625 -6.285156 2.140625 -5.359375 C 2.140625 -4.429688 2.289062 -3.644531 2.59375 -3 C 2.90625 -2.363281 3.320312 -1.878906 3.84375 -1.546875 C 4.375 -1.222656 4.960938 -1.0625 5.609375 -1.0625 C 6.253906 -1.0625 6.835938 -1.222656 7.359375 -1.546875 C 7.890625 -1.878906 8.304688 -2.363281 8.609375 -3 C 8.921875 -3.644531 9.078125 -4.429688 9.078125 -5.359375 Z M 9.078125 -5.359375 "/></g></g></g><g fill="#add8e6" fill-opacity="1"><g transform="translate(264.983102, 196.319333)"><g><path d="M 1.296875 0 L 1.296875 -10.71875 L 7.71875 -10.71875 L 7.71875 -9.5625 L 2.59375 -9.5625 L 2.59375 -5.9375 L 7.234375 -5.9375 L 7.234375 -4.796875 L 2.59375 -4.796875 L 2.59375 0 Z M 1.296875 0 "/></g></g></g><g fill="#add8e6" fill-opacity="1"><g transform="translate(276.621832, 196.319333)"><g><path d="M 0.71875 -9.5625 L 0.71875 -10.71875 L 8.75 -10.71875 L 8.75 -9.5625 L 5.375 -9.5625 L 5.375 0 L 4.078125 0 L 4.078125 -9.5625 Z M 0.71875 -9.5625 "/></g></g></g><g fill="#add8e6" fill-opacity="1"><g transform="translate(289.075842, 196.319333)"><g><path d="M 3.25 0 L 0.3125 -10.71875 L 1.625 -10.71875 L 3.875 -1.984375 L 3.984375 -1.984375 L 6.265625 -10.71875 L 7.71875 -10.71875 L 10 -1.984375 L 10.109375 -1.984375 L 12.34375 -10.71875 L 13.671875 -10.71875 L 10.734375 0 L 9.390625 0 L 7.03125 -8.546875 L 6.953125 -8.546875 L 4.578125 0 Z M 3.25 0 "/></g></g></g><g fill="#add8e6" fill-opacity="1"><g transform="translate(306.045212, 196.319333)"><g><path d="M 1.734375 0 L 0.375 0 L 4.3125 -10.71875 L 5.65625 -10.71875 L 9.578125 0 L 8.21875 0 L 7.140625 -3.03125 L 2.8125 -3.03125 Z M 3.21875 -4.1875 L 6.734375 -4.1875 L 5.015625 -9.015625 L 4.9375 -9.015625 Z M 3.21875 -4.1875 "/></g></g></g><g fill="#add8e6" fill-opacity="1"><g transform="translate(319.000941, 196.319333)"><g><path d="M 1.296875 0 L 1.296875 -10.71875 L 4.921875 -10.71875 C 5.753906 -10.71875 6.4375 -10.570312 6.96875 -10.28125 C 7.507812 -10 7.910156 -9.609375 8.171875 -9.109375 C 8.429688 -8.617188 8.5625 -8.0625 8.5625 -7.4375 C 8.5625 -6.71875 8.394531 -6.09375 8.0625 -5.5625 C 7.738281 -5.039062 7.238281 -4.660156 6.5625 -4.421875 L 8.984375 0 L 7.46875 0 L 5.21875 -4.1875 C 5.125 -4.1875 5.03125 -4.1875 4.9375 -4.1875 L 2.59375 -4.1875 L 2.59375 0 Z M 2.59375 -5.359375 L 4.890625 -5.359375 C 5.753906 -5.359375 6.367188 -5.539062 6.734375 -5.90625 C 7.097656 -6.28125 7.28125 -6.789062 7.28125 -7.4375 C 7.28125 -8.070312 7.09375 -8.582031 6.71875 -8.96875 C 6.351562 -9.363281 5.738281 -9.5625 4.875 -9.5625 L 2.59375 -9.5625 Z M 2.59375 -5.359375 "/></g></g></g><g fill="#add8e6" fill-opacity="1"><g transform="translate(331.413132, 196.319333)"><g><path d="M 1.296875 0 L 1.296875 -10.71875 L 7.765625 -10.71875 L 7.765625 -9.5625 L 2.59375 -9.5625 L 2.59375 -5.9375 L 7.4375 -5.9375 L 7.4375 -4.796875 L 2.59375 -4.796875 L 2.59375 -1.15625 L 7.84375 -1.15625 L 7.84375 0 Z M 1.296875 0 "/></g></g></g></svg>